# xmcd CD database file
#
# Track frame offsets:
#	150
#	2588
#	14888
#	27013
#	46314
#	47452
#	61519
#	78104
#	79455
#	104996
#	106143
#	127707
#	129263
#	152963
#	154697
#	168938
#	172800
#
# Disc length: 2560 seconds
#
# Revision: 0
# Processed by: cddbd v1.5.2PL0 Copyright (c) Steve Scherf et al.
# Submitted via: CDex 1.70beta2
#
DISCID=c009fe11
DTITLE=Pojken Flensborg og Jacob Venndt - Halløj i klaverbutikken
DYEAR=2007
DGENRE=Jazz
TTITLE0=Presentation 1
TTITLE1=Dick Turpin (flensborg)
TTITLE2=Sprechstallmeisteren (venndt)
TTITLE3=Min Dronning (venndt)
TTITLE4=Presentation 2
TTITLE5=Æblekage med flødeskum (venndt)
TTITLE6=Min jesus lad mit hjerte få (carl nielsen)
TTITLE7=Presentation 3
TTITLE8=Butterflies (flensborg)
TTITLE9=Presentation 4
TTITLE10=The first frost (flensborg)
TTITLE11=Presentation 5
TTITLE12=Verdens ende (venndt)
TTITLE13=Presentation 6
TTITLE14=Om lidt (kim larsen)
TTITLE15=Presentation 7
TTITLE16=Mobilvalsen (flensborg/venndt)
EXTD=YEAR: 2007
EXTT0=
EXTT1=
EXTT2=
EXTT3=
EXTT4=
EXTT5=
EXTT6=
EXTT7=
EXTT8=
EXTT9=
EXTT10=
EXTT11=
EXTT12=
EXTT13=
EXTT14=
EXTT15=
EXTT16=
PLAYORDER=
